<svg width="35" height="35" viewBox="0 0 35 35" fill="none" xmlns="http://www.w3.org/2000/svg">
<g clip-path="url(#clip0_215_40)">
<path d="M34.9625 26.1298C34.7938 24.3877 33.3516 23.7301 31.1685 22.7347C29.9008 22.1566 28.323 21.4372 26.3171 20.2789C26.1176 20.1637 25.8869 20.1145 25.6577 20.1381C25.4285 20.1618 25.2127 20.2573 25.041 20.4109C21.6286 23.4632 17.5869 22.2763 15.0951 19.7461C12.6098 17.2224 11.4901 13.1715 14.5912 9.81072C14.749 9.63969 14.8481 9.42279 14.8741 9.19155C14.9002 8.96032 14.8518 8.7268 14.736 8.52495C13.8437 6.96943 13.2069 5.58044 12.6953 4.4644C11.703 2.2998 10.9863 0.73581 9.39122 0.189072C7.78908 -0.360059 5.75272 0.234052 1.32119 2.54344C0.890368 2.76579 0.537027 3.11347 0.307732 3.54063C0.0784363 3.9678 -0.0160533 4.45442 0.0367152 4.93636C0.744577 11.6347 4.42908 18.8329 10.1455 24.6845C12.9191 27.5239 16.11 29.9482 19.3731 31.6943C22.8936 33.5786 26.4513 34.6871 29.9471 34.9893C30.02 34.9955 30.0924 34.9987 30.1642 34.9987C30.6269 35.0005 31.0802 34.8676 31.4686 34.6162C31.8571 34.3648 32.1639 34.0057 32.3517 33.5828L32.5729 33.0955C34.3072 29.2776 35.0985 27.5351 34.9625 26.1298ZM30.5816 32.1908L30.3601 32.6786C30.3432 32.7227 30.3117 32.7597 30.2709 32.7836C30.2301 32.8074 30.1825 32.8167 30.1357 32.8099C17.1908 31.6917 3.62046 18.0339 2.21205 4.70653C2.20431 4.66124 2.21192 4.61465 2.23366 4.57417C2.25541 4.53369 2.29005 4.50163 2.33209 4.48307C4.54755 3.32848 6.92153 2.19091 8.214 2.19091C8.37253 2.18758 8.53054 2.21028 8.68172 2.25811C9.38862 2.50044 9.913 3.64423 10.7067 5.3757C11.163 6.37102 11.7151 7.57564 12.4608 8.93887C10.9986 10.7894 10.3476 12.9395 10.5736 15.2019C10.7938 17.4054 11.846 19.5642 13.5365 21.2808C15.2288 22.9993 17.3752 24.0866 19.58 24.3421C19.9157 24.3812 20.2533 24.4009 20.5913 24.4011C22.4884 24.4011 24.2923 23.7709 25.8865 22.5493C27.6805 23.5483 29.1534 24.2199 30.2609 24.7248C32.096 25.5615 32.742 25.8942 32.7852 26.3405C32.8648 27.1635 32.0054 29.0558 30.5816 32.1908Z" fill="white"/>
</g>
<defs>
<clipPath id="clip0_215_40">
<rect width="35" height="35" fill="white"/>
</clipPath>
</defs>
</svg>
